<?xml version="1.0" encoding="UTF-8"?>
<svg version="1.1" xmlns="http://www.w3.org/2000/svg" width="900" height="500">
<path d="M0 0 C297 0 594 0 900 0 C900 165 900 330 900 500 C603 500 306 500 0 500 C0 335 0 170 0 0 Z " fill="#FEFEFE" transform="translate(0,0)"/>
<path d="M0 0 C0.88676926 -0.00571014 1.77353851 -0.01142029 2.68717957 -0.01730347 C3.65282837 -0.01842133 4.61847717 -0.01953918 5.61338806 -0.02069092 C7.14856331 -0.02813828 7.14856331 -0.02813828 8.7147522 -0.03573608 C12.10797296 -0.05036108 15.50114678 -0.05716458 18.89439392 -0.06268311 C21.26454672 -0.06843959 23.63469951 -0.07419726 26.00485229 -0.07995605 C30.98569454 -0.09047065 35.96652065 -0.09630857 40.94737244 -0.09979248 C47.2813892 -0.10524144 53.6151871 -0.12918982 59.94913578 -0.15776443 C64.85415225 -0.17654894 69.75911803 -0.18160502 74.6641674 -0.18312836 C76.9957796 -0.18612602 79.32739154 -0.19405488 81.65896797 -0.20731354 C127.84424888 -0.45093868 127.84424888 -0.45093868 143.52330017 14.94903564 C150.63450239 22.65055002 153.11795441 31.13128275 152.98423767 41.45294189 C152.97287781 42.69406738 152.97287781 42.69406738 152.96128845 43.96026611 C152.64682291 55.73321337 148.7153508 65.8230496 140.44126892 74.29669189 C134.69272707 79.59999384 128.55356007 83.70663489 121.54673767 87.14044189 C123.08402116 92.4327293 125.48510805 96.95917795 128.10923767 101.76544189 C135.89577168 116.34078064 142.44773321 131.20392737 147.89683533 146.80767822 C151.21269197 156.80013699 151.21269197 156.80013699 158.67173767 163.89044189 C163.46340434 166.97377523 163.46340434 166.97377523 164.54673767 169.14044189 C165.00791414 175.48161837 165.00791414 175.48161837 163.23423767 178.01544189 C159.85894537 180.26563676 156.80409946 180.28401312 152.86949158 180.33331299 C151.70463226 180.34937592 150.53977295 180.36543884 149.33961487 180.38198853 C144.02225779 180.42642279 138.70504745 180.46792426 133.38755798 180.49053955 C130.58026086 180.50388554 127.7736895 180.53175315 124.96665955 180.5725708 C120.92291504 180.63136413 116.87994972 180.64919649 112.83580017 180.66387939 C110.95279709 180.69788345 110.95279709 180.69788345 109.03175354 180.73257446 C99.34684724 180.70900616 99.34684724 180.70900616 96.25523376 177.79522705 C94.13358418 174.49845403 93.74573087 172.98527454 94.54673767 169.14044189 C97.30186826 165.69652866 99.25850503 163.99259069 103.54673767 163.14044189 C105.37875247 142.25547317 88.91308891 117.78037051 77.54673767 101.14044189 C75.69822205 101.35700439 75.69822205 101.35700439 73.81236267 101.57794189 C72.1405266 101.76578864 70.46864929 101.95326873 68.79673767 102.14044189 C67.99107361 102.23583252 67.18540955 102.33122314 66.35533142 102.42950439 C61.6224213 102.95124252 56.97737896 103.19077068 52.21372986 103.16778564 C51.14805786 103.16383789 50.08238586 103.15989014 48.98442078 103.15582275 C48.17998535 103.15074707 47.37554993 103.14567139 46.54673767 103.14044189 C46.60793687 110.52075039 46.68503372 117.90071192 46.78245258 125.28063679 C46.82718795 128.70743269 46.86643655 132.13410884 46.89317322 135.56109619 C46.92414814 139.500565 46.97893865 143.4395284 47.03501892 147.37872314 C47.04140884 148.61004471 47.04779877 149.84136627 47.05438232 151.11000061 C47.08407356 152.82143501 47.08407356 152.82143501 47.11436462 154.56744385 C47.13101921 156.07634941 47.13101921 156.07634941 47.14801025 157.61573792 C47.61296766 160.55980386 48.17610697 161.39375906 50.54673767 163.14044189 C52.87154941 164.16009617 55.20468467 165.16103791 57.54673767 166.14044189 C60.09404809 168.68775231 59.89996911 170.58559469 60.10533142 174.07012939 C59.23355858 177.30117559 57.27216239 178.31415897 54.54673767 180.14044189 C51.70127869 180.64837646 51.70127869 180.64837646 48.55064392 180.65802002 C47.36591492 180.67062866 46.18118591 180.6832373 44.96055603 180.69622803 C43.68962097 180.6881311 42.41868591 180.68003418 41.10923767 180.67169189 C39.79640808 180.6755188 38.48357849 180.6793457 37.13096619 180.68328857 C34.35692952 180.68917355 31.58340941 180.68065409 28.80943298 180.66192627 C25.26167686 180.63913598 21.71513119 180.65226463 18.16741943 180.67621613 C14.77292963 180.69418325 11.37876182 180.68158695 7.98423767 180.67169189 C6.71330261 180.67978882 5.44236755 180.68788574 4.13291931 180.69622803 C2.35582581 180.67731506 2.35582581 180.67731506 0.54283142 180.65802002 C-0.49687805 180.65483765 -1.53658752 180.65165527 -2.60780334 180.64837646 C-6.17646726 180.0113447 -7.8720309 178.63593311 -10.45326233 176.14044189 C-11.31730787 173.39266973 -11.07642163 170.93888877 -10.45326233 168.14044189 C-8.0716453 164.87674449 -5.0092443 163.01201135 -1.45326233 161.14044189 C-0.79326233 161.14044189 -0.13326233 161.14044189 0.54673767 161.14044189 C1.51739103 157.88389034 1.67242701 154.94606825 1.67372131 151.55448914 C1.67654114 150.41741516 1.67936096 149.28034119 1.68226624 148.10881042 C1.680242 146.86555496 1.67821777 145.6222995 1.6761322 144.34136963 C1.67788452 143.02887238 1.67963684 141.71637512 1.68144226 140.36410522 C1.68599986 136.76713854 1.68423402 133.17020055 1.68106318 129.57323337 C1.67853148 125.80967046 1.68087933 122.04611 1.68244934 118.282547 C1.68426844 111.96344563 1.68187129 105.64435594 1.67710876 99.32525635 C1.67166429 92.01685603 1.67343119 84.7084836 1.67893517 77.40008396 C1.68347087 71.1265452 1.68411467 64.85301485 1.6814965 58.57947499 C1.67993656 54.83191887 1.67973231 51.08437588 1.68303299 47.3368206 C1.68645383 43.16123676 1.68171449 38.98570113 1.6761322 34.81011963 C1.67815643 33.56483994 1.68018066 32.31956024 1.68226624 31.0365448 C1.67944641 29.90229065 1.67662659 28.7680365 1.67372131 27.59941101 C1.67315578 26.11804736 1.67315578 26.11804736 1.67257881 24.60675716 C1.65003595 22.00454632 1.65003595 22.00454632 0.54673767 19.14044189 C-1.09360426 18.41140104 -2.76628151 17.75388947 -4.45326233 17.14044189 C-9.26576233 14.51544189 -9.26576233 14.51544189 -10.45326233 12.14044189 C-10.80881788 4.67377523 -10.80881788 4.67377523 -8.45326233 1.14044189 C-5.64134916 0.10695607 -2.9761517 0.01152644 0 0 Z " fill="#ED3439" transform="translate(389.45326232910156,158.85955810546875)"/>
<path d="M0 0 C8.66116474 4.84206847 13.47295019 15.39936399 17.671875 23.984375 C18.13142578 24.91556152 18.59097656 25.84674805 19.06445312 26.80615234 C36.27679894 62.18132492 49.90454872 99.17159323 61.859375 136.609375 C62.1888916 137.63667725 62.5184082 138.66397949 62.85791016 139.72241211 C64.26137411 144.11622343 65.63905686 148.51013649 66.90625 152.9453125 C68.97980131 160.70798988 68.97980131 160.70798988 74.234375 166.484375 C75.3275 167.061875 76.420625 167.639375 77.546875 168.234375 C79.65877244 171.40222116 79.91524909 173.46402879 80.203125 177.19921875 C79.35368975 179.83347927 77.9262379 180.92253888 75.62686157 182.38212585 C71.05152946 184.25681242 65.9715521 183.77774067 61.10546875 183.73046875 C59.30481712 183.7326516 59.30481712 183.7326516 57.4677887 183.73487854 C54.93528816 183.73322164 52.40277734 183.72168392 49.87036133 183.70092773 C45.99451964 183.67195084 42.12004428 183.68032906 38.24414062 183.69335938 C35.78124335 183.68712242 33.3183504 183.67873182 30.85546875 183.66796875 C29.69703964 183.67090439 28.53861053 183.67384003 27.34507751 183.67686462 C26.26367996 183.66418045 25.18228241 183.65149628 24.06811523 183.63842773 C23.12024643 183.63302475 22.17237762 183.62762177 21.19578552 183.62205505 C18.02952718 183.1586588 16.12835957 182.09677221 13.546875 180.234375 C12.03798031 177.21658563 12.04661224 175.61114863 12.546875 172.234375 C14.90540197 168.93485005 17.68528099 166.09596901 20.546875 163.234375 C20.546875 150.54141982 15.19416883 138.39202111 11.546875 126.234375 C-9.573125 126.234375 -30.693125 126.234375 -52.453125 126.234375 C-61.0412967 149.61210951 -61.0412967 149.61210951 -60.453125 164.234375 C-56.97234388 167.69996361 -56.97234388 167.69996361 -54.30078125 169.1484375 C-52.453125 170.234375 -52.453125 170.234375 -51.453125 172.234375 C-50.98279509 179.64207105 -50.98279509 179.64207105 -52.72207642 181.83241272 C-54.81931302 183.53094772 -55.8090236 183.61801983 -58.47802734 183.63842773 C-59.68475601 183.65745399 -59.68475601 183.65745399 -60.91586304 183.67686462 C-61.78151886 183.67392899 -62.64717468 183.67099335 -63.5390625 183.66796875 C-64.87996445 183.67583153 -64.87996445 183.67583153 -66.24795532 183.68385315 C-68.13925132 183.69027673 -70.03058725 183.688932 -71.921875 183.68041992 C-74.81062399 183.67192646 -77.69738478 183.70063893 -80.5859375 183.73242188 C-82.42447857 183.73403444 -84.26302314 183.7334553 -86.1015625 183.73046875 C-86.96316986 183.74170273 -87.82477722 183.75293671 -88.7124939 183.76451111 C-92.76674859 183.71760283 -94.94168429 183.54292912 -98.48291016 181.40649414 C-100.453125 179.234375 -100.453125 179.234375 -101.328125 175.984375 C-100.32876674 171.70141104 -99.64070548 171.28500859 -96.328125 168.671875 C-92.3787277 165.4680641 -90.44587907 162.74571376 -88.5234375 158.046875 C-88.14928711 157.13560097 -88.14928711 157.13560097 -87.76757812 156.20591736 C-84.98215083 149.29348441 -82.60424335 142.23528201 -80.24581909 135.16842651 C-78.85259972 131.00024671 -77.43526304 126.84026402 -76.01953125 122.6796875 C-75.72720108 121.81981735 -75.43487091 120.9599472 -75.13368225 120.07402039 C-38.79673651 13.38803083 -38.79673651 13.38803083 -19.453125 0.234375 C-13.45203078 -1.76598974 -6.05459937 -1.88965203 0 0 Z " fill="#ED3439" transform="translate(800.453125,155.765625)"/>
<path d="M0 0 C1.191698 0.41971069 1.191698 0.41971069 2.4074707 0.84790039 C8.73842166 3.23610993 13.21695307 5.76557161 16.71875 11.8046875 C18.1584273 16.56145912 18.38959986 20.80794847 18.375 25.75 C18.40335938 26.63042969 18.43171875 27.51085937 18.4609375 28.41796875 C18.47451553 32.91908664 18.34187341 34.99504068 15.59375 38.703125 C12.26834504 41.0538423 10.71981367 41.38792999 6.78515625 41.09375 C0.93866949 39.65902932 -2.23792932 32.64856199 -5.4296875 27.9921875 C-7.42057378 25.21228638 -9.57802303 22.90387413 -12.125 20.625 C-12.82625 19.944375 -13.5275 19.26375 -14.25 18.5625 C-25.01863848 11.30537407 -37.55864441 11.29773957 -50.125 12.625 C-57.60470487 14.27448776 -63.10352865 17.42081536 -67.7890625 23.5234375 C-72.14265733 30.37207498 -73.34700703 37.03339209 -71.609375 44.984375 C-69.9471632 49.84064083 -67.72260193 52.32556463 -63.3125 54.9375 C-50.9904085 60.67674576 -37.25114135 62.67598339 -23.95361328 64.97949219 C-5.3960013 68.21654278 11.66833135 72.76261562 23.88671875 88.16015625 C33.20333413 101.7346797 33.57481627 118.14551552 31.40625 134.06640625 C30.75714785 136.7207704 29.93662353 139.10870911 28.875 141.625 C28.49601563 142.58019531 28.11703125 143.53539062 27.7265625 144.51953125 C20.63428049 160.48741475 7.71589664 170.30624005 -8.27832031 176.62719727 C-15.06772399 179.14093006 -21.98390875 180.49703218 -29.125 181.625 C-30.24003906 181.810625 -31.35507813 181.99625 -32.50390625 182.1875 C-50.295507 184.33707852 -68.60842111 182.61428516 -85.125 175.625 C-86.66800781 174.99464844 -86.66800781 174.99464844 -88.2421875 174.3515625 C-100.54168287 168.82477627 -111.99365625 158.2626875 -118.0625 146.125 C-119.82812369 140.30882783 -120.19301954 135.76103909 -117.4375 130.25 C-114.41942331 126.82407511 -112.40788689 124.89623409 -107.7578125 124.34375 C-102.60745323 124.16035442 -99.28039729 124.3045962 -95.125 127.625 C-93.2931194 130.23325258 -91.81737979 133.00637004 -90.3125 135.8125 C-83.71007345 147.47369061 -76.42244984 155.29595806 -63.10424805 159.22045898 C-57.32663563 160.65355155 -51.7490932 160.97559695 -45.8125 160.9375 C-44.89114258 160.93186035 -43.96978516 160.9262207 -43.02050781 160.92041016 C-32.05752999 160.7255385 -22.60760671 159.02701987 -14.125 151.625 C-9.26430471 145.64260579 -7.62923041 139.76193798 -7.8125 132.15625 C-8.30750223 128.14673191 -9.56194522 124.76371414 -12.125 121.625 C-22.79571522 113.82232625 -35.83523152 111.87594376 -48.61599731 110.02764893 C-71.13617078 106.72797029 -91.63529632 103.05905755 -106.125 83.625 C-112.0096137 74.56341693 -113.69586782 63.86761443 -113.625 53.25 C-113.61927979 52.24485352 -113.61355957 51.23970703 -113.60766602 50.20410156 C-113.4123606 42.05782738 -112.12465394 35.82639711 -108.125 28.625 C-107.32835937 27.16900391 -107.32835937 27.16900391 -106.515625 25.68359375 C-97.35975396 10.24881116 -82.32747033 0.49300917 -65.125 -4.0625 C-43.70546526 -9.38763433 -20.59280343 -7.30457987 0 0 Z " fill="#ED3439" transform="translate(137.125,161.375)"/>
<path d="M0 0 C1.01487991 -0.00637985 2.02975983 -0.0127597 3.07539368 -0.01933289 C4.16192734 -0.02044571 5.248461 -0.02155853 6.36791992 -0.02270508 C7.49606613 -0.02603348 8.62421234 -0.02936188 9.7865448 -0.03279114 C12.17116896 -0.03784861 14.55580017 -0.04019983 16.94042969 -0.04003906 C20.57458262 -0.04222203 24.20843018 -0.0603809 27.8425293 -0.0793457 C30.1634918 -0.08228063 32.48445575 -0.08426476 34.80541992 -0.08520508 C35.88588089 -0.09239059 36.96634186 -0.09957611 38.07954407 -0.10697937 C52.06559889 -0.06497177 52.06559889 -0.06497177 56.78588867 3.77026367 C58.25593126 7.26161482 58.55757271 10.47057779 57.78588867 14.14526367 C55.77013628 16.77185012 53.79122092 18.50730667 51.00073242 20.27807617 C50.09000977 20.86202148 50.09000977 20.86202148 49.16088867 21.45776367 C48.59112305 21.78389648 48.02135742 22.1100293 47.43432617 22.44604492 C42.30492445 27.73346139 41.9760495 36.32287022 41.16088867 43.27026367 C41.0397168 44.21385742 40.91854492 45.15745117 40.79370117 46.12963867 C39.00670678 60.54213695 38.57311377 74.84153202 38.5456543 89.34814453 C38.53593944 92.44159757 38.50481016 95.53438709 38.47338867 98.62768555 C38.37305749 117.39693756 38.96035099 139.76012089 52.78588867 154.14526367 C60.80931533 162.03987385 71.30462249 164.50512437 82.28588867 164.64526367 C89.91948105 164.56486505 96.69900223 163.05504394 103.78588867 160.14526367 C104.47038086 159.86811523 105.15487305 159.5909668 105.86010742 159.30541992 C114.20735706 155.23496336 119.5862203 147.10513438 122.67236328 138.63525391 C126.73859438 125.89094924 127.24963015 113.3316451 127.09838867 100.08276367 C127.08766367 98.32251016 127.07700387 96.56225624 127.06640625 94.80200195 C126.89607628 74.96892932 125.85505549 55.20676889 123.34838867 35.52026367 C123.23841553 34.63129395 123.12844238 33.74232422 123.01513672 32.82641602 C122.37820905 28.33552114 121.72814506 24.75621469 118.78588867 21.14526367 C116.39729119 19.39405461 116.39729119 19.39405461 113.72338867 18.02026367 C110.35669808 16.19107789 108.95451857 15.39820851 106.78588867 12.14526367 C106.23591986 8.60260744 106.0611523 5.26860504 108.03588867 2.20776367 C111.15787198 0.31227381 114.31084949 0.01875568 117.90844727 -0.03173828 C118.70962982 -0.04457352 119.51081238 -0.05740875 120.33627319 -0.07063293 C121.19363068 -0.07801987 122.05098816 -0.0854068 122.93432617 -0.09301758 C123.82447418 -0.10108932 124.71462219 -0.10916107 125.63174438 -0.11747742 C127.51285877 -0.13128869 129.3939979 -0.14202403 131.27514648 -0.14990234 C133.19546874 -0.16143727 135.11575857 -0.18191291 137.03588867 -0.21142578 C139.81475551 -0.25412986 142.59267183 -0.27027368 145.37182617 -0.28051758 C146.6517897 -0.30677971 146.6517897 -0.30677971 147.95761108 -0.33357239 C153.51707974 -0.31343014 156.51802811 0.5113816 160.78588867 4.14526367 C162.21420844 7.3113725 161.96696631 9.90921686 160.78588867 13.14526367 C158.38846022 15.6272575 155.90100825 17.54612979 153.07104492 19.51635742 C150.6915866 20.94324652 150.6915866 20.94324652 149.78588867 23.14526367 C148.98985379 33.06445999 150.49290563 43.08734367 151.496521 52.94311523 C153.15668102 69.52160419 154.18867447 85.98092199 154.16088867 102.64526367 C154.16233887 103.49172455 154.16378906 104.33818542 154.1652832 105.21029663 C154.16076819 128.29247569 150.63543434 149.23869754 133.78588867 166.14526367 C133.15811523 166.79624023 132.5303418 167.4472168 131.88354492 168.11791992 C121.97370088 177.65064516 107.33223152 181.98233628 93.97338867 183.83276367 C93.06613037 183.95868896 92.15887207 184.08461426 91.22412109 184.21435547 C81.72017082 185.42918321 72.34760643 185.61059671 62.78588867 185.14526367 C62.01647949 185.10804199 61.24707031 185.07082031 60.4543457 185.0324707 C44.32343744 184.09330714 28.82405995 180.01992719 15.78588867 170.14526367 C15.13491211 169.67475586 14.48393555 169.20424805 13.81323242 168.71948242 C1.51655843 159.12537414 -4.70504157 142.51631401 -6.74536133 127.45385742 C-9.35092172 102.41975162 -7.88345284 74.81313941 -3.68408203 50.01538086 C-2.92515155 45.38058258 -2.90718715 40.77071231 -2.83911133 36.08276367 C-2.78303711 34.61226562 -2.78303711 34.61226562 -2.72583008 33.11206055 C-2.62435127 27.18848735 -2.62435127 27.18848735 -5.49926758 22.13745117 C-6.84311523 21.15131836 -6.84311523 21.15131836 -8.21411133 20.14526367 C-8.88055664 19.64381836 -9.54700195 19.14237305 -10.23364258 18.62573242 C-10.82532227 18.19905273 -11.41700195 17.77237305 -12.02661133 17.33276367 C-14.01122284 15.6477981 -15.05380554 14.65743564 -15.83520508 12.16088867 C-16.08326247 8.16190285 -15.46289714 6.47934747 -13.02661133 3.20776367 C-8.86989569 0.15950554 -5.04954439 0.02166228 0 0 Z " fill="#ED3439" transform="translate(202.214111328125,158.854736328125)"/>
<path d="M0 0 C0.97814163 -0.00960754 1.95628326 -0.01921509 2.96406555 -0.02911377 C4.01514999 -0.03336365 5.06623444 -0.03761353 6.14916992 -0.04199219 C7.23671066 -0.04769226 8.3242514 -0.05339233 9.44474792 -0.05926514 C11.74538197 -0.06870727 14.0460295 -0.07524599 16.34667969 -0.07910156 C19.85595444 -0.08880172 23.36464208 -0.11983102 26.8737793 -0.15136719 C29.11140604 -0.15789815 31.34903695 -0.16314826 33.58666992 -0.16699219 C35.15418755 -0.18551239 35.15418755 -0.18551239 36.75337219 -0.20440674 C42.62490445 -0.18656441 46.92931305 0.21537134 52.06713867 3.16113281 C54.53792581 6.86731351 54.37030322 8.58534172 53.82495117 12.86425781 C52.50765071 16.85690045 49.46796847 18.89687276 46.06713867 21.16113281 C46.6496728 26.40393993 49.18032802 30.64864143 51.62963867 35.22363281 C52.08290527 36.07489746 52.53617188 36.92616211 53.00317383 37.80322266 C56.6420456 44.54723088 60.62991365 50.91118709 65.06713867 57.16113281 C66.04062175 58.55769225 67.0132127 59.9548738 67.98510742 61.35253906 C73.1606117 68.76795759 78.37624744 76.12767217 84.06713867 83.16113281 C94.38356976 73.83083117 101.83575458 59.97982453 108.69213867 48.03613281 C109.41820312 46.77748413 109.41820312 46.77748413 110.15893555 45.4934082 C114.77389757 37.27809235 118.7772624 29.74780314 118.06713867 20.16113281 C117.34526367 19.89300781 116.62338867 19.62488281 115.87963867 19.34863281 C111.56151588 17.52542541 108.69865405 16.10840587 106.06713867 12.16113281 C105.55878575 8.26376041 105.73751685 6.65556555 107.94213867 3.34863281 C110.94989582 0.25241221 110.94989582 0.25241221 113.8684845 0.01396179 C114.59508774 0.00411758 115.32169098 -0.00572662 116.0703125 -0.01586914 C117.30718559 -0.03512199 117.30718559 -0.03512199 118.56904602 -0.05476379 C119.46173691 -0.06215073 120.3544278 -0.06953766 121.27416992 -0.07714844 C122.19171555 -0.08522018 123.10926117 -0.09329193 124.05461121 -0.10160828 C125.99895333 -0.11545212 127.94331979 -0.12617293 129.88769531 -0.1340332 C132.85748519 -0.15123884 135.8261598 -0.19512101 138.7956543 -0.23925781 C140.68431798 -0.24938537 142.57299114 -0.25790127 144.46166992 -0.26464844 C145.79159721 -0.29091057 145.79159721 -0.29091057 147.14839172 -0.31770325 C151.31198994 -0.30309854 153.49981628 -0.18978544 157.11499023 2.04638672 C159.34696539 4.46426675 159.87328998 5.58593123 160.00463867 8.84863281 C159.82860374 12.15523496 159.57111305 13.64204999 157.24291992 16.04003906 C156.44241211 16.6575 155.6419043 17.27496094 154.81713867 17.91113281 C146.77843398 24.28744249 143.05013772 33.65137329 138.41870117 42.6015625 C135.58679042 47.9645958 132.31514053 53.04248689 129.06713867 58.16113281 C128.29069905 59.41919977 127.51605542 60.67837638 126.74291992 61.93847656 C121.74321245 70.0642417 116.5394544 78.01931395 111.09838867 85.85644531 C110.6565625 86.51950684 110.21473633 87.18256836 109.75952148 87.86572266 C108.06713867 90.16113281 108.06713867 90.16113281 105.52319336 92.85107422 C95.54762597 103.93217787 96.85367861 116.09316354 97.31713867 130.28613281 C97.35021321 132.64544989 97.3788937 135.00483284 97.40307617 137.36425781 C97.47057225 141.65950805 97.54000969 145.95405369 97.68139648 150.24755859 C97.70711731 151.1024588 97.73283813 151.95735901 97.75933838 152.83816528 C98.09468684 155.36903869 98.71698146 157.00237141 100.06713867 159.16113281 C102.42099663 160.85918365 102.42099663 160.85918365 105.12963867 162.28613281 C109.96991645 164.96668837 109.96991645 164.96668837 111.06713867 167.16113281 C111.65108028 174.40200872 111.65108028 174.40200872 109.19213867 177.59863281 C105.74046522 180.136628 103.7597002 180.29401195 99.50341797 180.32226562 C98.33848312 180.33187317 97.17354828 180.34148071 95.97331238 180.35137939 C94.07649467 180.35775421 94.07649467 180.35775421 92.14135742 180.36425781 C90.19903984 180.37280792 90.19903984 180.37280792 88.21748352 180.38153076 C85.4727845 180.39204079 82.72811476 180.39788309 79.98339844 180.40136719 C76.47279709 180.40684489 72.96258499 180.43085681 69.45210552 180.45933914 C66.09853033 180.48249035 62.74500839 180.48441716 59.39135742 180.48925781 C58.13288498 180.50160461 56.87441254 180.51395142 55.57780457 180.52667236 C54.40341324 180.52367126 53.22902191 180.52067017 52.01904297 180.51757812 C50.98804977 180.52122375 49.95705658 180.52486938 48.89482117 180.52862549 C45.5823953 180.09813435 43.74104889 179.13745006 41.06713867 177.16113281 C38.5867496 173.44054921 38.60376664 171.56316711 39.06713867 167.16113281 C41.6440091 163.51056637 45.55319631 161.52732558 49.36010742 159.30957031 C51.2230029 158.25980177 51.2230029 158.25980177 52.06713867 156.16113281 C52.76270917 149.61467712 52.72428187 142.9582352 52.85668945 136.38134766 C52.91303593 134.17546377 52.99451113 131.97005879 53.1027832 129.76611328 C53.67230128 117.94191824 53.98021188 108.43072263 45.89916992 99.13769531 C44.17156995 97.27704091 42.41169039 95.47091916 40.59643555 93.69586182 C38.66988925 91.76247234 37.0862778 89.67692459 35.52416992 87.44238281 C35.07589844 86.80913086 34.62762695 86.17587891 34.16577148 85.5234375 C33.74134766 84.90887695 33.31692383 84.29431641 32.87963867 83.66113281 C32.39462891 82.96665039 31.90961914 82.27216797 31.40991211 81.55664062 C26.77473625 74.85667709 22.44830841 67.97500118 18.20776367 61.02050781 C17.11253078 59.23512816 15.99993096 57.46211991 14.87963867 55.69238281 C11.66246917 50.57415861 8.6531559 45.47293071 6.00463867 40.03613281 C1.53342905 30.93746161 -2.64647216 23.3698331 -11.11254883 17.50097656 C-12.93286133 16.16113281 -12.93286133 16.16113281 -13.93286133 14.16113281 C-14.63019789 7.07154443 -14.63019789 7.07154443 -11.68286133 3.22363281 C-7.79362396 0.30670479 -4.78074222 0.03803434 0 0 Z " fill="#ED3439" transform="translate(562.932861328125,158.8388671875)"/>
<path d="M0 0 C0.97018066 0.00491455 1.94036133 0.0098291 2.93994141 0.01489258 C13.8332645 0.19348666 23.49832923 2.05773423 31.65625 9.7578125 C37.44741095 16.18869472 37.62985008 23.26893226 37.5 31.546875 C36.72632681 39.31584327 32.97074955 45.49810932 27.2421875 50.72265625 C14.7301998 60.11818945 -2.45954233 63.51086688 -17.8125 63.375 C-18.49634766 63.37048828 -19.18019531 63.36597656 -19.88476562 63.36132812 C-21.54821604 63.3496956 -23.2116205 63.33176694 -24.875 63.3125 C-25.00189674 55.58969691 -25.08939284 47.86716321 -25.1496582 40.14355469 C-25.17478429 37.51682488 -25.20889085 34.89016486 -25.25219727 32.26367188 C-25.31292806 28.4855018 -25.34123015 24.70825704 -25.36328125 20.9296875 C-25.38908768 19.75759735 -25.4148941 18.5855072 -25.44148254 17.37789917 C-25.44460782 8.26916677 -25.44460782 8.26916677 -22.6027832 4.60864258 C-16.31796467 -0.681675 -7.88680572 -0.04713231 0 0 Z " fill="#FEFDFD" transform="translate(460.875,176.6875)"/>
<path d="M0 0 C0.66 0 1.32 0 2 0 C7.82081964 12.80389161 13.16270592 25.73422132 18 38.9375 C18.23683502 39.5801178 18.47367004 40.2227356 18.71768188 40.88482666 C21.17924681 47.58214225 23.26339005 54.0535602 25 61 C8.83 61 -7.34 61 -24 61 C-16.8811365 40.82988675 -16.8811365 40.82988675 -13.9375 33.125 C-13.59807373 32.23498291 -13.25864746 31.34496582 -12.90893555 30.42797852 C-10.83310674 25.03418209 -8.63470502 19.7348181 -6.1640625 14.5078125 C-3.95128924 9.74069696 -1.99393293 4.86180242 0 0 Z " fill="#FEFAFA" transform="translate(779,198)"/>
</svg>
